<svg width="64" height="77" viewBox="0 0 64 77" fill="none" xmlns="http://www.w3.org/2000/svg">
<path d="M0.0890903 2.39888C1.30559 2.15004 2.61119 1.928 4.00547 1.73276C5.40015 1.53704 6.83199 1.35951 8.30058 1.19968C9.76917 1.03937 11.2454 0.897247 12.7287 0.772829C14.2125 0.64841 15.622 0.55079 16.9571 0.479967C20.102 0.301953 23.2917 0.177535 26.5257 0.106713C26.9708 0.0354114 27.5049 0 28.1282 0C28.751 0 29.3147 0 29.8193 0C32.2523 0 34.7892 0.239744 37.4299 0.719712C40.0707 1.19968 42.6595 2.00792 45.1964 3.14539C47.7332 4.28238 50.1363 5.78401 52.4063 7.64981C54.6759 9.5156 56.6714 11.8346 58.3925 14.6067C60.1132 17.3788 61.4779 20.6486 62.4871 24.4156C63.4958 28.1831 64 32.5191 64 37.4236C64 41.1552 63.6145 44.5671 62.843 47.6589C62.0716 50.7507 61.0109 53.5673 59.6609 56.1083C58.3106 58.6498 56.7309 60.9243 54.9208 62.9322C53.111 64.9401 51.175 66.6992 49.1127 68.2099C47.0505 69.7202 44.9219 71.0174 42.7262 72.1013C40.5305 73.1852 38.3572 74.0647 36.2058 74.7404C34.0549 75.4156 31.9854 75.9042 29.9975 76.2062C28.0095 76.5081 26.2141 76.6593 24.6121 76.6593C24.3448 76.6593 24.0708 76.6416 23.7887 76.6062C23.5067 76.5703 23.2322 76.5526 22.9653 76.5526C22.3421 76.5526 21.2666 76.5263 19.7385 76.4727C18.2104 76.4196 16.4006 76.3129 14.3088 76.1531C12.217 75.9932 9.93257 75.7707 7.45482 75.4865C4.97747 75.2022 2.49253 74.829 0 74.3672L0.178181 72.3947C1.66155 72.6789 3.13055 72.9187 4.58436 73.1144C6.03817 73.3096 7.46241 73.4962 8.8567 73.6743V3.03868C7.43245 3.21621 6.02338 3.41193 4.6287 3.62488C3.23402 3.8383 1.83973 4.08714 0.445052 4.37139L0.0890903 2.39888ZM47.4883 37.1034V35.7176C47.4883 34.829 47.4588 33.6829 47.3992 32.2789C47.3401 30.8753 47.1991 29.3115 46.9766 27.5878C46.754 25.8642 46.4276 24.0429 45.9974 22.1235C45.5671 20.2046 44.9886 18.312 44.2615 16.4462C43.5348 14.5804 42.6371 12.8031 41.5688 11.1149C40.5009 9.42707 39.2101 7.93406 37.6968 6.63723C36.1838 5.33993 34.4332 4.30918 32.4453 3.54496C30.4573 2.78075 28.1725 2.39888 25.5913 2.39888V74.5801C28.3507 74.5801 30.7689 74.0561 32.8456 73.0077C34.9226 71.9592 36.7328 70.582 38.2757 68.876C39.8182 67.1701 41.1166 65.2157 42.1697 63.0121C43.2232 60.8085 44.0909 58.5517 44.7733 56.2418C45.456 53.9315 45.9826 51.6661 46.3533 49.4448C46.7241 47.2234 46.9913 45.2246 47.1543 43.4473C47.3177 41.6705 47.414 40.2043 47.4436 39.0491C47.4735 37.8944 47.4883 37.2456 47.4883 37.1034Z" fill="#5554E7"/>
</svg>
